<?xml version="1.0" standalone="no"?>
<!DOCTYPE svg PUBLIC "-//W3C//DTD SVG 20010904//EN"
 "http://www.w3.org/TR/2001/REC-SVG-20010904/DTD/svg10.dtd">
<svg version="1.0" xmlns="http://www.w3.org/2000/svg"
 width="101.000000pt" height="101.000000pt" viewBox="0 0 101.000000 101.000000"
 preserveAspectRatio="xMidYMid meet">
<metadata>
Created by potrace 1.14, written by Peter Selinger 2001-2017
</metadata>
<g transform="translate(0.000000,101.000000) scale(0.100000,-0.100000)"
fill="#000000" stroke="none">
<path d="M414 886 c-138 -34 -242 -127 -289 -263 -56 -158 -16 -324 106 -438
243 -227 636 -93 688 236 47 289 -220 534 -505 465z m35 -41 c22 -11 87 -81
96 -102 0 -1 22 5 48 14 61 20 104 11 153 -32 l39 -34 -28 -1 c-16 0 -37 5
-48 10 -11 6 -19 7 -19 1 0 -13 -60 -20 -67 -7 -4 5 -9 2 -13 -9 -5 -15 5 -24
51 -47 32 -16 69 -42 83 -58 26 -31 59 -111 70 -169 l6 -34 -30 41 c-16 23
-30 46 -30 52 0 5 -3 10 -7 10 -5 0 -30 21 -56 45 -49 46 -86 60 -72 28 16
-38 17 -118 2 -153 -12 -28 -16 -31 -16 -13 -2 54 -59 225 -73 221 -5 -2 -10
-8 -10 -13 0 -6 -4 -15 -10 -22 -5 -7 -7 -16 -4 -21 3 -5 -7 -15 -22 -21 -25
-12 -26 -14 -9 -26 17 -12 17 -14 -4 -28 -12 -9 -18 -20 -14 -27 4 -6 -3 -22
-16 -36 -13 -14 -17 -24 -10 -24 10 0 8 -7 -4 -27 -12 -18 -14 -28 -7 -31 8
-2 7 -12 -3 -33 -9 -16 -12 -29 -7 -29 5 0 8 -27 7 -60 -1 -43 2 -60 12 -60
10 0 10 -5 1 -25 -6 -14 -19 -25 -29 -25 -22 0 -48 42 -30 48 9 3 8 10 -3 27
-12 18 -12 25 -3 28 9 3 9 10 -1 32 -9 19 -10 30 -3 35 7 4 8 17 1 40 -13 44
-13 43 6 36 13 -5 14 1 8 42 -6 43 -6 46 9 33 15 -12 17 -10 17 24 0 30 3 36
16 31 14 -5 16 -1 11 30 -5 27 -3 35 7 31 9 -4 16 5 20 24 3 17 10 28 16 24 5
-3 10 -1 10 6 0 6 8 18 18 25 16 12 15 13 -7 14 -14 0 -33 8 -43 17 -18 16
-18 16 -12 0 5 -13 1 -17 -18 -17 -13 0 -29 5 -36 12 -9 9 -12 8 -12 -4 0 -10
-11 -17 -30 -20 -17 -3 -30 0 -30 6 0 5 -6 3 -12 -6 -7 -9 -23 -19 -35 -23
-30 -8 -31 17 -3 62 29 48 71 66 145 61 l62 -4 -11 28 c-5 14 -13 25 -17 22
-4 -2 -21 9 -38 25 -16 15 -32 27 -34 24 -6 -6 -57 19 -57 28 0 21 92 24 129
4z"/>
</g>
</svg>
